<?xml version="1.0" encoding="UTF-8" standalone="no"?><!DOCTYPE svg PUBLIC "-//W3C//DTD SVG 1.1//EN" "http://www.w3.org/Graphics/SVG/1.1/DTD/svg11.dtd"><svg width="100%" height="100%" viewBox="0 0 300 300" version="1.1" xmlns="http://www.w3.org/2000/svg" xmlns:xlink="http://www.w3.org/1999/xlink" xml:space="preserve" xmlns:serif="http://www.serif.com/" style="fill-rule:evenodd;clip-rule:evenodd;stroke-linejoin:round;stroke-miterlimit:2;"><g id="Gemini_Generated_Image_hucerphucerphuce.png"><path d="M142.175,16.887c19.462,-0.627 28.21,-1.674 50.015,10.037c1.929,1.036 4.118,4.496 6.631,3.91c37.637,-8.771 51.872,17.194 54.993,21.711c1.994,2.886 0.523,8.957 9.146,10.626c2.023,0.392 13.36,2.585 21.725,13.839c1.64,2.207 4.11,7.958 4.417,8.673c8.046,18.74 -3.306,31.577 -1.618,34.871c4.342,8.472 9.754,15.313 2.3,33.327c-2.815,6.802 2.042,5.877 7.459,17.083c5.215,10.789 5.812,45.745 -23.786,49.199c-7.413,0.865 -3.515,4.768 -7.149,11.973c-15.724,31.176 -44.154,36.815 -59.76,42.906c-12.326,4.811 -72.067,11.335 -90.004,6.981c-7.073,-1.717 -7.241,0.3 -14.348,-1.616c-21.943,-5.916 -54.85,-9.516 -65.332,-45.456c-2.329,-7.987 -11.667,-1.792 -24.723,-12.646c-21.638,-17.987 -12.54,-55.233 13.004,-57.51c13.004,-1.159 -4.964,-6.419 -7.916,-11.999c-9.993,-18.888 0.018,-23.766 -2.05,-28.543c-3.483,-8.048 -13.038,-17.178 -1.086,-40.694c1.93,-3.798 13.531,-12.911 18.604,-13.742c6.508,-1.066 7.92,0.17 10.265,-5.938c6.449,-16.802 26.825,-28.935 41.366,-30.534c4.628,-0.509 4.228,-1.826 8.961,-2.008c17.506,-0.675 18.291,1.379 23.356,-3.181c6.105,-5.497 23.391,-10.633 25.531,-11.268Z" style="fill:#2d283d;"/><path d="M122.847,275.463c-82.336,-6.531 -80.9,-49.162 -82.785,-71.298c-0.039,-0.457 -2.296,-26.971 2.712,-5.046c6.878,30.11 67.005,20.706 78.76,6.262c13.657,-16.781 -1.17,-43.794 27.145,-34.861c8.97,2.83 -3.385,39.86 37.198,41.752c62.446,2.91 56.827,-18.778 60.273,-46.758c0.416,-3.381 4.701,-4.971 5.799,-0.057c0.681,3.045 1.221,6.122 1.988,9.146c4.203,16.584 11.669,-6.318 15.775,-10.116c18.676,-17.271 39.525,45.855 1.075,48.389c-15.415,1.016 -5.988,11.811 -21.111,29.362c-31.348,36.38 -116.346,33.573 -126.829,33.227Z" style="fill:#edbb9d;"/><path d="M143.264,108.631c13.244,10.898 29.859,10.784 31.071,9.953c0.754,-0.517 0.547,-1.896 1.301,-2.413c19.684,0.366 19.476,-1.76 31.116,-9.233c4.285,-2.751 7.847,17.253 27.999,19.105c6.811,0.626 8.797,-0.536 9.897,6.138c1.469,8.91 7.545,27.276 -3.565,15.503c-8.31,-8.806 -80.55,-7.72 -88.389,6.416c-4.27,7.7 -6.023,6.288 -20.783,5.878c-6.435,-0.178 -3.677,-7.959 -19.281,-10.106c-18.195,-2.503 -56.534,-0.308 -66.853,4.289c-3.399,1.514 -3.954,3.119 -4.944,1.019c-1.775,-3.764 7.212,-4.406 10.122,-23.052c0.113,-0.721 -0.557,-6.482 3.831,-7.294c10.839,-2.005 11.177,-1.523 20.187,-8.627c22.473,14.668 27.24,7.652 31.186,4.497c4.733,-0.086 16.611,1.307 37.107,-12.073Z" style="fill:#edc3a8;"/><path d="M201.323,150.894c7.427,-0.278 34.011,-3.445 35.415,8.348c3.832,32.201 -4.996,40.475 -16.205,43.16c-60.148,14.408 -59.065,-19.548 -60.573,-26.504c-5.484,-25.303 13.386,-23.13 41.363,-25.005Z" style="fill:#edc4a8;"/><path d="M66.213,158.58c3.782,-0.53 27.241,-3.814 47.726,-1.096c14.597,1.937 7.39,36.631 1.126,44.002c-6.092,7.168 -64.577,26.13 -68.374,-16.602c-2.131,-23.987 4.517,-23.556 19.522,-26.304Z" style="fill:#edc4a9;"/><path d="M192.337,159.056c24.291,1.039 26.598,23.415 15.236,33.295c-27.793,24.168 -47.591,-23.539 -15.236,-33.295Z" style="fill:#31293d;"/><path d="M87.027,165.995c22.257,-5.248 27.156,14.755 23.834,25.161c-10.361,32.454 -59.469,-3.305 -23.834,-25.161Z" style="fill:#30293e;"/><path d="M25.258,220.525c-29.27,-15.347 -14.898,-41.914 -5.405,-46.227c19.628,-8.918 12.197,13.526 15.316,45.299c0.523,5.329 -9.369,1.073 -9.91,0.928Z" style="fill:#ecbb9c;"/><path d="M207.702,137.987c-0.063,0.004 -45.24,4.977 -25.542,-8.267c12.169,-8.182 42.503,3.54 25.542,8.267Z" style="fill:#2a2236;"/><path d="M92.048,144.171c-1.727,0.137 -29.309,2.331 -21.326,-3.73c2.312,-1.755 16.761,-9.044 27.725,-5.775c0.692,0.206 17.007,5.627 -1.307,8.936c-0.403,0.073 -0.377,0.042 -5.093,0.569Z" style="fill:#2a2235;"/><path d="M140.975,237.11c-1.511,-0.367 -15.17,-3.689 -16.776,-9.816c-2.172,-8.291 7.738,0.974 10.384,2.323c18.024,9.188 28.227,-6.745 28.537,-7.068c2.095,-2.179 5.812,-1.108 4.559,2.106c-5.596,14.351 -24.356,12.666 -26.704,12.456Z" style="fill:#2a2335;"/><path d="M74.971,116.207c3.818,-4.97 4.302,-7.158 9.57,-3.766c10.008,6.445 18.415,7.568 21.616,8.263c-3.945,3.154 -8.713,10.171 -31.186,-4.497Z" style="fill:#d39785;"/><path d="M143.264,108.631c0.056,-0.051 5.318,-6.039 7.607,-4.293c10.183,7.765 9.816,8.759 24.764,11.833c-0.754,0.517 -0.547,1.896 -1.301,2.413c-1.212,0.831 -17.827,0.945 -31.071,-9.953Z" style="fill:#d19684;"/><path d="M268.705,187.503c0.371,-1.208 4.338,-14.113 8.627,-13.229c2.118,0.437 -0.849,7.502 -1.102,8.105c-4.27,10.166 -1.186,16.579 -2.62,19.39c-0.549,1.075 -5.51,1.996 -4.904,-14.266Z" style="fill:#d08370;"/><path d="M31.107,207.377c-4.488,7.777 -3.285,-6.601 -6.58,-13.23c-3.357,-6.753 -4.989,-7.276 -2.899,-8.723c3.353,-2.321 9.417,6.516 9.076,12.144c-0.048,0.784 0.082,0.685 0.404,9.809Z" style="fill:#d1856f;"/><path d="M99.733,173.407c0.455,0.088 8.347,1.607 3.55,4.571c-5.381,3.325 -9.82,-3.248 -3.55,-4.571Z" style="fill:#d2c6c4;"/><path d="M201.322,174.631c-2.432,-2.082 -3.394,-2.112 -2.212,-5.046c1.91,-4.739 9.987,4.607 2.212,5.046Z" style="fill:#d4c7c5;"/></g></svg>